# xmcd
#
# Track frame offsets:
#	150
#	15922
#	37889
#	51855
#	62459
#	81140
#	97008
#	109275
#	128133
#	138449
#	153604
#	173527
#
# Disc length: 2555 seconds
#
# Revision: 0
# Processed by: cddbd v1.5.2PL0 Copyright (c) Steve Scherf et al.
# Submitted via: EasyCDDAExtractor 11.0.0.1
#
DISCID=9109f90c
DTITLE=ΣΑΡΑΜΑΝΤΗΣ ΣΠΥΡΟΣ  - ΟΤΟ ΘΕΣ
DYEAR=2002
DGENRE=ΛΑΪΚΑ
TTITLE0=Σαραμαντής Σπύρος_01 Η αγάπη
TTITLE1=Σαραμαντής Σπύρος_02 Δεν αντέχω
TTITLE2=Σαραμαντής Σπύρος_03 Ότι Θές
TTITLE3=Σαραμαντής Σπύρος_04 Δεν ενδιαφέρομαι
TTITLE4=Σαραμαντής Σπύρος_05 Κινδυνεύω
TTITLE5=Σαραμαντής Σπύρος_06 Τιμωρείσαι
TTITLE6=Σαραμαντής Σπύρος_07 Έλα Έλα
TTITLE7=Σαραμαντής Σπύρος_08 Θα το ξεπεράσω
TTITLE8=Σαραμαντής Σπύρος_09 Είναι δεδομένο
TTITLE9=Σαραμαντής Σπύρος_10 Προβληματική αγάπη
TTITLE10=Σαραμαντής Σπύρος_11 Ήσουν κάποτε
TTITLE11=Σαραμαντής Σπύρος_12 Ποτέ
EXTD=
EXTT0=
EXTT1=
EXTT2=
EXTT3=
EXTT4=
EXTT5=
EXTT6=
EXTT7=
EXTT8=
EXTT9=
EXTT10=
EXTT11=
PLAYORDER=
